<svg height="166" viewBox="0 0 250 166" width="250" xmlns="http://www.w3.org/2000/svg"><g fill="none" fill-rule="nonzero" transform="translate(-4 -17)"><path d="m164.123645 136.664013v30.388325h-76.1341508c-8.6744643 0-15.7320945-6.816295-15.7320945-15.194162 0-8.377868 7.0576208-15.194163 15.7320945-15.194163z" fill="#f2f2f2"/><path d="m165.993696 166.818582c0 .645393-.523389 1.168782-1.168782 1.168782h-78.1914988c-8.8433546 0-16.0123099-7.168956-16.0123099-16.01231 0-8.843355 7.1689553-16.01231 16.0123099-16.01231h78.1914988c.6455 0 1.168782.523281 1.168782 1.168782 0 .6455-.523282 1.168781-1.168782 1.168781h-78.1914988c-7.5523539 0-13.6747464 6.122393-13.6747464 13.674747s6.1223925 13.674746 13.6747464 13.674746h78.1914988c.645393.000258 1.168782.523389 1.168782 1.168782z" fill="#397ed1"/><path d="m164.123645 143.676703h-81.8147223c-.1291 0-.2337563-.104656-.2337563-.233756s.1046563-.233756.2337563-.233756h81.8147223c.1291 0 .233756.104656.233756.233756s-.104656.233756-.233756.233756z" fill="#ccc"/><path d="m164.123645 149.286856h-81.8147223c-.1291 0-.2337563-.104656-.2337563-.233757 0-.1291.1046563-.233756.2337563-.233756h81.8147223c.1291 0 .233756.104656.233756.233756 0 .129101-.104656.233757-.233756.233757z" fill="#ccc"/><path d="m164.123645 154.897008h-81.8147223c-.1291 0-.2337563-.104656-.2337563-.233756s.1046563-.233756.2337563-.233756h81.8147223c.1291 0 .233756.104656.233756.233756s-.104656.233756-.233756.233756z" fill="#ccc"/><path d="m164.123645 160.507161h-81.8147223c-.1291 0-.2337563-.104657-.2337563-.233757s.1046563-.233756.2337563-.233756h81.8147223c.1291 0 .233756.104656.233756.233756s-.104656.233757-.233756.233757z" fill="#ccc"/><path d="m222.964187 142.384244-19.066273 23.66279-59.284158-47.768164c-6.754643-5.442549-7.973584-15.17836-2.717135-21.7020395 5.256448-6.5236792 15.028766-7.4032973 21.783408-1.9607482z" fill="#f2f2f2"/><g fill="#ccc"><path d="m205.500751 167.038313c-.405134.502394-1.140709.581523-1.643426.17679l-60.886175-49.058983c-6.886146-5.548506-7.970518-15.628783-2.422012-22.5149285 5.548506-6.8861459 15.628783-7.9705174 22.514929-2.4220114l60.886175 49.0589919c.325432.261901.486346.677573.422088 1.090331-.064259.412757-.343921.75984-.733568.910416s-.830033.08175-1.155157-.180533l-60.886174-49.058985c-3.804046-3.0675796-8.955928-3.8720538-13.51409-2.1102459-4.558163 1.7618079-7.829732 5.8220908-8.581775 10.6506769-.752042 4.828586 1.129758 9.691496 4.93622 12.756077l60.886175 49.058987c.502388.405133.581516 1.140701.17679 1.643417z"/><path d="m218.56429 147.844888-63.707521-51.332268c-.06503-.0523982-.097166-.1355092-.084303-.218026.012864-.0825167.068772-.1519029.146665-.1820214s.165938-.0163936.230968.0360046l63.707506 51.3322768c.065151.05236.097388.135522.084549.218113-.012839.082592-.068799.152044-.146771.182155-.077971.030111-.166086.016299-.231105-.036225z"/><path d="m215.044352 152.213404-63.707509-51.332273c-.100335-.081054-.116055-.228061-.035128-.328499.080928-.100438.227915-.116344.328455-.035544l63.707509 51.332273c.065151.052359.097388.135521.084549.218113-.012839.082591-.0688.152043-.146771.182154-.077971.030112-.166087.0163-.231105-.036224z"/><path d="m211.524423 156.581924-63.707507-51.332277c-.100528-.081-.116359-.228158-.035359-.328686s.228158-.116359.328686-.035359l63.707509 51.332272c.06503.052398.097166.135509.084303.218026s-.068771.151903-.146665.182022c-.077893.030118-.165937.016393-.230967-.036005z"/><path d="m208.004496 160.950433-63.707508-51.332263c-.06503-.052398-.097166-.13551-.084303-.218026.012863-.082517.068771-.151903.146664-.182022.077894-.030118.165938-.016393.230968.036005l63.707506 51.332263c.065151.05236.097388.135521.084549.218113-.012838.082592-.068799.152043-.14677.182155-.077972.030111-.166087.016299-.231106-.036225z"/><path d="m226.977415 168.22112h-173.4472111c-.1291001 0-.2337564-.104656-.2337564-.233756s.1046563-.233757.2337564-.233757h173.4472111c.1291 0 .233756.104657.233756.233757s-.104656.233756-.233756.233756z"/></g><path d="m132.325028 133.469976-2.672303-.000234-1.270933-10.30772 3.944171.000467z" fill="#ffb8b8"/><path d="m127.743733 132.706186h5.153815v3.244994h-8.398804c0-.860625.34188-1.686002.950433-2.294557.608554-.608554 1.43393-.950437 2.294556-.950437z" fill="#2f2e41"/><path d="m105.023455 133.469976-2.672303-.000234-1.270933-10.30772 3.944171.000467z" fill="#ffb8b8"/><path d="m100.442268 132.706186h5.153815v3.244994h-8.3988047c0-.860625.3418801-1.686002.9504337-2.294557.6085537-.608554 1.4339301-.950437 2.294556-.950437z" fill="#2f2e41"/><path d="m113.949406 57.0108616v-1.1687958c0-4.1634771 3.375165-7.5386422 7.538642-7.5386422h.000014c4.163477 0 7.538643 3.3751651 7.538643 7.5386422v1.1687958c0 3.0015766-2.433259 5.4348351-5.434836 5.4348351h-4.207614c-1.44141 0-2.823785-.5725917-3.843018-1.5918214-1.019232-1.0192297-1.591831-2.4016034-1.591831-3.8430137z" fill="#2f2e41"/><circle cx="121.488048" cy="57.106566" fill="#ffb8b8" r="5.741297"/><path d="m90.259072 76.8386572c.4716468-.4453589 1.1163349-.6589344 1.7605928-.5832582.644258.0756763 1.2219066.4328308 1.5775133.9753611l4.9216511-.9309744 1.2952206 2.8528887-6.9687911 1.2170992c-.9723654.5490304-2.201699.2840195-2.8615028-.6168623-.6598037-.9008817-.5415249-2.1528809.2753161-2.9142611z" fill="#ffb8b8"/><path d="m117.012014 66.4635382.064367.0975279-8.07063 5.3166409-13.6182494 4.3486371c-.3722403.1196064-.6082526.4853932-.5638203.8738443l.2970809 2.558842c.0266486.2290008.1486594.4361367.336027.5704681s.4227073.1833943.6481434.1351231l12.8167974-2.7472846c.620276-.1321935 1.206778-.3904158 1.72313-.7586516l9.066909-6.4509482c.668608-.4782829 1.03753-1.2720789.972052-2.0915326-.06765-.8207402-.563213-1.5449302-1.303741-1.9052203-.740528-.3602902-1.616188-.3032429-2.303711.1500818z" fill="#ccc"/><path d="m129.700456 130.544908c-.419127 0-.798645-.247684-.967214-.631418l-12.251149-30.2716813c-.058582-.1344744-.194686-.2182654-.341134-.2100164-.146449.0082491-.272282.1067943-.315392.2469967l-9.995026 29.470542c-.085278.277198-.281197.506901-.541472.63484-.260275.127938-.561817.142764-.833387.040975l-3.351688-1.256896c-.370975-.137853-.632831-.472705-.677192-.865972-1.507831-13.135325 11.641078-46.2907178 11.774107-46.624003l.036809-.0923337 11.986348 2.6514445.024939.0271648c4.782134 5.2169438 8.712904 38.1214524 9.452352 44.6646974.056761.48683-.231838.947876-.694535 1.109543l-2.958478 1.046312c-.111717.039579-.229368.059805-.347888.059805z" fill="#2f2e41"/><path d="m119.372944 84.7045793c-2.904091 0-6.14181-.5790144-7.138414-2.9688645l-.022941-.0549024.030987-.0509051c.786646-1.2906834 1.826338-3.4924204 1.267513-3.905718-1.100812-.8139232-1.634983-2.1528959-1.587559-3.979793.102954-3.9658681 2.805191-7.4869377 6.724205-8.7617536h.000059c1.0939-.3500778 2.207102-.6367006 3.334048-.8584375 1.663561-.3356725 3.390047.0906782 4.706116 1.1621618 1.332615 1.0785207 2.112655 2.6968043 2.126233 4.4111225.04109 4.2382037-.611385 10.1411218-3.953313 14.193737-.156639.188032-.374587.3147821-.61548.3579394-1.607809.2908208-3.237601.4431838-4.871454.4554134z" fill="#ccc"/><path d="m118.29266 84.5458868c.328931-1.1799305 1.546742-1.8748591 2.729916-1.557792.116056.0324405.229249.0743656.338435.1253518l3.736983-3.4008837 2.598903 1.7508982-5.344088 4.729106c-.49654.8952414-1.538881 1.3373693-2.527652 1.0721492-.565405-.1547411-1.045472-.529121-1.333312-1.0397833s-.359558-1.1152124-.199185-1.6790462z" fill="#ffb8b8"/><path d="m124.506053 84.5890712c-.242476 0-.477518-.083701-.665144-.2372956l-1.473703-1.2042777c-.248873-.2033872-.391102-.5093955-.386131-.8307665.004971-.3213711.156596-.622834.411641-.8184266l6.180903-4.7405273c.152478-.1175181.182021-.3358413.066259-.4896565l-3.814977-5.0435667c-.915151-1.2058453-.827517-2.8958437.207448-4.0005669 1.09459-1.1821902 2.912782-1.3276105 4.181361-.3344282l.02414.0254537 3.983675 5.7042043c.873226.6846618 1.376248 1.738124 1.359728 2.847634-.01652 1.1095101-.550683 2.1475291-1.443906 2.8058895l-8.005128 6.11008c-.181286.1339605-.400755.2062505-.626166.2062505z" fill="#ccc"/><path d="m116.402536 55.4914383v-2.8485899l5.085512-2.2206853 4.849133 2.2206853v2.8485899c0 .2582002-.209312.4675127-.467513.4675127h-8.999619c-.2582 0-.467513-.2093125-.467513-.4675127z" fill="#2f2e41"/><path d="m121.254586 48.6813211c-.747737-2.393319.822662-5.1361716 3.144222-6.083509 2.321561-.9473373 5.09903-.2851219 7.057964 1.2800218 1.958935 1.5651436 3.174325 3.909437 3.818315 6.3327353.643989 2.4232983.766225 4.9502161.885118 7.4548055 2.852349.5239392 4.792667 3.9070691 3.804562 6.6336148-.988104 2.7265458-4.645365 4.081103-7.171133 2.6560098-2.525767-1.4250933-3.25732-5.2559204-1.43442-7.5114564 1.774553-2.1957205 1.830926-5.3162427.136837-7.5746247-1.69409-2.2583819-4.705716-3.0774937-7.310296-1.9882774-1.405763.5878785-3.169626-.9395579-2.931169-1.1993197z" fill="#2f2e41"/><path d="m89.204735 65.7883494c-3.4150298-.0224182-6.7873733-.7610138-9.8991466-2.1680668-.3784845-.1686781-.6216306-.5449692-.6198984-.959336v-8.5129247c.0006535-.5806833.4712296-1.0512594 1.0519129-1.0519036h18.9342642c.5806791.0006544 1.0512492.4712246 1.0519128 1.0519036v8.5129387c.0017218.4143631-.2414197.7906486-.619896.9593361-3.111775 1.4070484-6.4841193 2.1456392-9.8991489 2.1680527z" fill="#397ed1"/><path d="m89.202138 58.8918526c-.1403678 0-.2793437-.0278192-.4087581-.0821798l-15.0146237-6.3347059c-.3961464-.1671149-.650699-.5585112-.6429987-.9883918.008056-.4298806.2767785-.8116872.6787821-.9641749l15.0148225-5.696114c.2418358-.0921659.5092207-.0915964.7506617.0015989l14.8136242 5.6960976c.399645.1536947.666252.5342876.674343.9623947.007729.428107-.244636.818289-.638331.9866423l-14.8137873 6.3345984c-.1308147.0557086-.2715521.0842345-.4137347.0842345z" fill="#397ed1"/><circle cx="80.438872" cy="62.796998" fill="#3f3d56" r="1.402538"/><path d="m104.48085 51.5738549-14.8138525 6.3346054c-.2333476.0997795-.4972309.1004182-.7310589.0017695l-15.0146214-6.3345212c-.1885619-.0776561-.3458739-.2159263-.4470824-.3929795-.1339288.2322466-.16165.5108198-.076114.7648916s.2760874.4591612.5231964.5631133l15.0146214 6.3345212c.233828.0986487.4977113.09801.7310589-.0017695l14.8138525-6.3346054c.245839-.1048598.435004-.3099772.51966-.5634836.084657-.2535063.0567-.53113-.076801-.7626676-.100477.1756213-.256166.3131232-.442859.3911258z" fill="#000" opacity=".2"/><path d="m80.5567202 62.7915182c.1291001 0 .2337563-.1046563.2337563-.2337563v-7.8218194l7.7095649-2.8086153c.1291001.001923.2353152-.1011745.2372646-.2302745.0018965-.1291001-.1012009-.2353152-.230301-.2372382l-7.7095648 2.8086153c-.1253716-.0028826-.2464536.0457064-.3350547.1344543-.0895183.0876537-.1398013.2077725-.1394238.3330584v7.8218194c0 .1290973.1046611.2337563.2337585.2337563z" fill="#3f3d56"/></g></svg>